<?xml version="1.0" standalone="no"?>
<!DOCTYPE svg PUBLIC "-//W3C//DTD SVG 20010904//EN"
 "http://www.w3.org/TR/2001/REC-SVG-20010904/DTD/svg10.dtd">
<svg version="1.0" xmlns="http://www.w3.org/2000/svg"
 width="512.000000pt" height="512.000000pt" viewBox="0 0 512.000000 512.000000"
 preserveAspectRatio="xMidYMid meet">
<metadata>
Created by potrace 1.14, written by Peter Selinger 2001-2017
</metadata>
<g transform="translate(0.000000,512.000000) scale(0.100000,-0.100000)"
fill="#000000" stroke="none">
<path d="M2826 5105 c-16 -7 -25 -14 -20 -17 5 -3 3 -3 -4 -1 -8 1 -50 -10
-95 -26 -82 -29 -269 -71 -314 -71 -13 0 -31 -4 -41 -10 -9 -5 -125 -32 -257
-60 l-240 -51 -115 -69 c-63 -38 -144 -89 -179 -112 l-65 -43 -41 -147 c-24
-82 -38 -148 -33 -148 4 0 35 11 68 24 33 14 60 23 60 21 0 -1 -30 -22 -67
-46 -38 -24 -81 -57 -98 -74 -16 -16 -50 -44 -75 -61 -40 -27 -50 -42 -94
-145 -27 -63 -70 -157 -94 -209 -71 -153 -82 -186 -82 -250 0 -33 3 -60 8 -60
4 0 30 35 59 78 28 42 94 138 147 212 52 74 93 136 91 138 -2 2 -35 -5 -74
-17 -38 -11 -73 -21 -77 -21 -4 0 56 45 134 100 114 81 148 111 179 157 50 76
68 92 270 238 137 100 183 128 229 140 32 8 68 15 79 15 12 0 54 22 95 48 142
93 132 89 187 63 l48 -22 49 21 c48 20 76 21 38 1 -11 -6 -22 -16 -25 -24 -4
-11 12 -10 77 5 100 22 117 23 96 5 -8 -7 -30 -29 -49 -49 l-33 -36 51 -22
c28 -13 51 -26 51 -29 0 -7 -71 -48 -250 -144 -52 -28 -106 -68 -140 -101 -56
-57 -64 -61 -218 -106 -41 -12 -72 -23 -70 -25 1 -1 40 3 85 9 l83 13 -108
-111 c-210 -217 -582 -579 -629 -612 -26 -19 -50 -41 -53 -50 -3 -8 -137 -147
-298 -308 -234 -234 -300 -295 -331 -305 -22 -6 -42 -18 -45 -26 -3 -8 -16
-15 -28 -15 -30 -1 -65 -26 -46 -33 10 -4 8 -10 -7 -24 -36 -32 -55 -66 -55
-99 0 -37 29 -157 39 -164 4 -3 13 -38 19 -78 8 -48 23 -89 43 -122 31 -50 44
-64 33 -35 -4 8 -4 15 -1 15 3 0 13 -23 22 -51 16 -47 16 -51 0 -69 -19 -21
-19 -22 1 -254 l7 -78 -26 17 c-26 16 -29 16 -100 -8 -41 -14 -121 -38 -178
-52 -210 -53 -299 -87 -318 -124 -6 -10 -30 -24 -56 -30 l-45 -11 0 -785 0
-785 2560 0 2560 0 0 73 c0 39 -4 66 -8 60 -5 -8 -19 18 -38 70 -20 56 -42 96
-69 126 -25 28 -35 46 -27 48 18 7 15 27 -8 48 -11 10 -20 23 -20 30 0 6 -12
22 -26 36 -14 13 -32 38 -39 54 -7 17 -134 150 -281 297 -148 146 -281 279
-297 295 l-28 30 15 99 c9 55 22 133 31 173 8 40 13 76 11 80 -2 3 4 52 14
108 10 56 18 133 17 172 -1 53 3 75 16 89 9 10 22 45 27 78 17 94 20 105 30
99 6 -3 10 0 10 7 0 19 34 38 57 32 11 -3 27 4 42 20 14 14 32 26 42 26 29 0
79 49 79 78 0 15 12 38 27 54 24 25 26 31 14 49 -10 17 -10 27 0 50 6 16 10
31 8 33 -2 2 -50 19 -106 39 l-103 36 0 -69 c0 -63 -1 -68 -20 -63 -11 3 -20
12 -20 19 0 18 2 19 -72 -15 -116 -52 -108 -55 -108 44 0 58 3 84 11 80 6 -4
8 -20 4 -38 l-6 -32 16 30 c16 29 16 30 -9 50 -22 17 -26 31 -32 101 -4 52 -3
83 4 88 18 11 226 -85 242 -113 8 -14 9 -13 10 5 0 14 -17 31 -55 55 -30 18
-55 37 -55 42 0 4 -6 7 -14 7 -8 0 -17 7 -20 16 -3 9 -12 14 -19 11 -7 -3 -24
4 -38 15 l-24 20 30 -16 c25 -15 24 -12 -10 18 -39 34 -60 41 -35 11 11 -13
10 -14 -3 -10 -12 5 -34 83 -29 106 0 3 -76 86 -171 184 l-172 177 -145 39
c-80 21 -192 51 -248 65 l-104 27 6 41 c4 23 9 77 11 121 3 44 11 135 19 202
16 149 32 176 80 136 35 -29 -50 63 -205 222 -210 216 -244 255 -220 248 28
-7 27 11 -4 65 l-24 42 22 -5 c115 -27 237 -47 312 -52 50 -3 102 -12 117 -19
21 -11 200 -54 223 -54 1 0 6 25 10 55 3 30 10 55 14 55 13 0 31 -24 31 -41 0
-11 23 -29 65 -50 62 -32 67 -37 99 -105 30 -64 68 -105 83 -91 2 3 0 22 -6
44 -6 23 -6 32 0 23 40 -63 88 -148 124 -220 23 -47 68 -118 99 -157 32 -40
53 -73 49 -73 -5 0 -15 6 -22 13 -10 8 -12 9 -10 0 6 -17 153 -292 156 -290 1
2 -22 92 -52 202 -30 110 -55 206 -55 214 0 10 11 4 33 -15 l32 -29 -29 32
c-16 18 -33 30 -38 27 -4 -3 -8 1 -8 8 0 7 -22 35 -50 63 l-50 50 -4 82 c-7
107 -14 132 -46 165 -15 15 -45 63 -66 107 -21 44 -42 79 -48 78 -5 -1 -12 13
-16 30 -10 43 -32 76 -75 109 -43 32 -47 54 -5 24 31 -22 30 -21 -19 70 -54
103 -87 131 -155 138 -54 5 -204 86 -292 159 l-69 56 53 -6 c29 -3 67 -16 85
-28 l32 -21 -34 29 c-32 28 -39 30 -194 41 l-162 13 -35 34 -36 35 -144 -1
c-90 -1 -156 -6 -174 -14z m-2046 -2480 c10 -13 9 -15 -11 -15 -13 0 -34 -3
-46 -6 -17 -5 -23 -2 -23 9 0 26 61 35 80 12z m295 -109 c66 -114 64 -92 19
-326 -23 -117 -36 -155 -96 -285 -38 -82 -74 -157 -79 -165 -15 -23 -1 174 26
390 13 102 31 239 40 305 18 146 25 188 30 184 1 -2 29 -49 60 -103z m3282
-788 c-3 -7 -5 -2 -5 12 0 14 2 19 5 13 2 -7 2 -19 0 -25z"/>
<path d="M3371 5117 c12 -10 142 -77 134 -70 -42 39 -97 73 -116 73 -12 0 -20
-1 -18 -3z"/>
<path d="M3612 4964 c4 -5 28 -25 54 -44 26 -18 45 -29 42 -24 -4 5 -28 25
-54 44 -26 18 -45 29 -42 24z"/>
<path d="M3720 4886 c0 -2 8 -10 18 -17 15 -13 16 -12 3 4 -13 16 -21 21 -21
13z"/>
<path d="M3760 4856 c0 -2 14 -14 30 -26 17 -12 30 -19 30 -16 0 2 -13 14 -30
26 -16 12 -30 19 -30 16z"/>
<path d="M1540 4752 c-36 -20 -51 -42 -28 -42 8 0 27 14 43 30 34 35 32 36
-15 12z"/>
<path d="M3574 3713 c-21 -32 -43 -63 -47 -70 -6 -10 15 -13 98 -13 58 0 105
3 105 8 0 4 -27 35 -59 70 l-58 63 -39 -58z"/>
<path d="M4502 3470 c0 -14 2 -19 5 -12 2 6 2 18 0 25 -3 6 -5 1 -5 -13z"/>
<path d="M1239 3433 c-13 -16 -12 -17 4 -4 9 7 17 15 17 17 0 8 -8 3 -21 -13z"/>
<path d="M4488 2775 c-10 -13 -18 -27 -18 -32 0 -4 5 0 11 11 9 15 13 16 20 5
6 -10 9 -6 9 14 0 33 0 33 -22 2z"/>
<path d="M4512 2715 c0 -16 2 -22 5 -12 2 9 2 23 0 30 -3 6 -5 -1 -5 -18z"/>
<path d="M4522 2655 c0 -16 2 -22 5 -12 2 9 2 23 0 30 -3 6 -5 -1 -5 -18z"/>
<path d="M671 2064 c0 -11 3 -14 6 -6 3 7 2 16 -1 19 -3 4 -6 -2 -5 -13z"/>
</g>
</svg>
